<svg width="118" height="118" viewBox="0 0 118 118" fill="none" xmlns="http://www.w3.org/2000/svg">
<path d="M29.5 0C35.3346 6.95764e-08 41.0381 1.73015 45.8893 4.97165C50.7406 8.21316 54.5217 12.8204 56.7545 18.2109C58.9872 23.6013 59.5714 29.5328 58.4332 35.2552C57.2949 40.9776 54.4853 46.234 50.3596 50.3597C46.234 54.4853 40.9775 57.2949 35.2551 58.4332C29.5326 59.5714 23.6012 58.9872 18.2108 56.7544C12.8203 54.5216 8.21308 50.7405 4.97159 45.8892C1.7301 41.038 -2.2396e-05 35.3344 2.17483e-10 29.4999L29.5 29.5V0Z" fill="url(#paint0_linear_29_42)"/>
<path d="M0 88.5C5.10073e-07 82.6654 1.73015 76.9619 4.97166 72.1107C8.21317 67.2594 12.8205 63.4783 18.2109 61.2455C23.6013 59.0128 29.5328 58.4286 35.2552 59.5668C40.9777 60.7051 46.2341 63.5147 50.3597 67.6404C54.4854 71.7661 57.2949 77.0225 58.4332 82.7449C59.5714 88.4674 58.9872 94.3989 56.7544 99.7893C54.5216 105.18 50.7405 109.787 45.8892 113.028C41.0379 116.27 35.3344 118 29.4998 118L29.5 88.5H0Z" fill="url(#paint1_linear_29_42)"/>
<path d="M59 88.5C59 82.6654 60.7302 76.9619 63.9717 72.1107C67.2132 67.2594 71.8205 63.4783 77.2109 61.2455C82.6013 59.0128 88.5328 58.4286 94.2552 59.5668C99.9777 60.7051 105.234 63.5147 109.36 67.6404C113.485 71.7661 116.295 77.0225 117.433 82.7449C118.571 88.4674 117.987 94.3989 115.754 99.7893C113.522 105.18 109.74 109.787 104.889 113.028C100.038 116.27 94.3344 118 88.4998 118L88.5 88.5H59Z" fill="url(#paint2_linear_29_42)"/>
<path d="M109.36 8.64035C113.485 12.766 116.295 18.0224 117.433 23.7448C118.571 29.4673 117.987 35.3987 115.754 40.7891C113.522 46.1796 109.741 50.7868 104.889 54.0283C100.038 57.2698 94.3346 59 88.5001 59C82.6655 59 76.962 57.2699 72.1107 54.0284C67.2595 50.7869 63.4784 46.1796 61.2456 40.7892C59.0128 35.3988 58.4286 29.4674 59.5668 23.7449C60.7051 18.0225 63.5146 12.7661 67.6403 8.64042L88.5 29.5L109.36 8.64035Z" fill="url(#paint3_linear_29_42)"/>
<defs>
<linearGradient id="paint0_linear_29_42" x1="188" y1="188" x2="2.50001" y2="2.49999" gradientUnits="userSpaceOnUse">
<stop offset="0.275719" stop-color="white"/>
<stop offset="1" stop-color="#5995C2"/>
</linearGradient>
<linearGradient id="paint1_linear_29_42" x1="188" y1="188" x2="2.50001" y2="2.49999" gradientUnits="userSpaceOnUse">
<stop offset="0.275719" stop-color="white"/>
<stop offset="1" stop-color="#5995C2"/>
</linearGradient>
<linearGradient id="paint2_linear_29_42" x1="188" y1="188" x2="2.50001" y2="2.49999" gradientUnits="userSpaceOnUse">
<stop offset="0.275719" stop-color="white"/>
<stop offset="1" stop-color="#5995C2"/>
</linearGradient>
<linearGradient id="paint3_linear_29_42" x1="188" y1="188" x2="2.50001" y2="2.49999" gradientUnits="userSpaceOnUse">
<stop offset="0.275719" stop-color="white"/>
<stop offset="1" stop-color="#5995C2"/>
</linearGradient>
</defs>
</svg>
